#N canvas 1705 67 695 400 12;
#X floatatom 22 101 5 20 300 0 - - -;
#X obj 22 126 expr 60000 / $f1;
#X text 148 125 < get ms for crotchets per minute;
#X obj 22 152 / 4;
#X floatatom 22 184 5 0 0 0 - - -;
#X text 52 152 < get ms for semi-quavers per minute (i.e. 16th notes)
;
#X obj 22 212 * 3;
#X text 148 99 < Range 20 - 300 bpm?;
#X floatatom 22 245 5 0 0 0 - - -;
#X obj 22 47 loadbang;
#X msg 22 74 20;
#X connect 0 0 1 0;
#X connect 1 0 3 0;
#X connect 3 0 4 0;
#X connect 4 0 6 0;
#X connect 6 0 8 0;
#X connect 9 0 10 0;
#X connect 10 0 0 0;
