#N canvas 1731 50 543 444 10;
#X obj 85 39 notein;
#X obj 182 39 ctlin;
#X floatatom 182 77 5 0 0 0 - - -;
#X floatatom 216 77 5 0 0 0 - - -;
#X floatatom 250 77 5 0 0 0 - - -;
#X obj 85 110 stripnote;
#X obj 85 178 bng 15 250 50 0 empty empty empty 17 7 0 10 -204786 -1
-1;
#X obj 105 178 bng 15 250 50 0 empty empty empty 17 7 0 10 -262144
-1 -1;
#X obj 125 178 bng 15 250 50 0 empty empty empty 17 7 0 10 -262144
-1 -1;
#X obj 145 178 bng 15 250 50 0 empty empty empty 17 7 0 10 -262144
-1 -1;
#X obj 165 178 bng 15 250 50 0 empty empty empty 17 7 0 10 -262144
-1 -1;
#X obj 185 178 bng 15 250 50 0 empty empty empty 17 7 0 10 -262144
-1 -1;
#X obj 85 146 sel 36 39 48 45 43 51 49;
#X obj 205 178 bng 15 250 50 0 empty empty empty 17 7 0 10 -262144
-1 -1;
#X msg 105 209 set 37;
#X msg 152 209 set 38;
#X msg 199 209 set 39;
#X msg 247 209 set 40;
#X msg 295 209 set 41;
#X msg 344 209 set 42;
#X msg 85 255 37;
#X obj 29 146 loadbang;
#X obj 85 280 makenote 99 500;
#X obj 85 318 noteout;
#X text 291 148 used to remap the pads of the nanoPad to trigger pattern
clips in Live.;
#X connect 0 0 5 0;
#X connect 0 1 5 1;
#X connect 1 0 2 0;
#X connect 1 1 3 0;
#X connect 1 2 4 0;
#X connect 5 0 12 0;
#X connect 6 0 20 0;
#X connect 7 0 14 0;
#X connect 8 0 15 0;
#X connect 9 0 16 0;
#X connect 10 0 17 0;
#X connect 11 0 18 0;
#X connect 12 0 6 0;
#X connect 12 1 7 0;
#X connect 12 2 8 0;
#X connect 12 3 9 0;
#X connect 12 4 10 0;
#X connect 12 5 11 0;
#X connect 12 6 13 0;
#X connect 13 0 19 0;
#X connect 14 0 20 0;
#X connect 15 0 20 0;
#X connect 16 0 20 0;
#X connect 17 0 20 0;
#X connect 18 0 20 0;
#X connect 19 0 20 0;
#X connect 20 0 22 0;
#X connect 21 0 7 0;
#X connect 22 0 23 0;
#X connect 22 1 23 1;
