#N canvas 2805 208 450 300 12;
#X floatatom 79 16 5 0 0 0 - - -;
#X floatatom 79 65 5 0 0 0 - - -;
#X obj 79 40 mod 3;
#X obj 79 89 * 0.333;
#X floatatom 79 114 5 0 0 0 - - -;
#X text 122 113 < this figure can then be added to the current pattern
step then rounded;
#X obj 28 90 / 3;
#X floatatom 28 114 5 0 0 0 - - -;
#X floatatom 199 6 5 0 0 0 - - -;
#X floatatom 199 64 5 0 0 0 - - -;
#X obj 199 39 mod 32;
#X floatatom 252 64 5 0 0 0 - - -;
#X obj 252 39 mod 3;
#X floatatom 296 64 5 0 0 0 - - -;
#X obj 296 39 mod 6;
#X floatatom 341 64 5 0 0 0 - - -;
#X obj 341 39 mod 12;
#X connect 0 0 2 0;
#X connect 1 0 3 0;
#X connect 1 0 6 0;
#X connect 2 0 1 0;
#X connect 3 0 4 0;
#X connect 6 0 7 0;
#X connect 8 0 10 0;
#X connect 8 0 12 0;
#X connect 8 0 14 0;
#X connect 8 0 16 0;
#X connect 10 0 9 0;
#X connect 12 0 11 0;
#X connect 14 0 13 0;
#X connect 16 0 15 0;
